<svg xmlns="http://www.w3.org/2000/svg" width="93.531" height="38.594" viewBox="0 0 93.531 38.594">
  <defs>
    <style>
      .cls-1 {
        fill: #fff;
        fill-rule: evenodd;
      }
    </style>
  </defs>
  <path id="Alva" class="cls-1" d="M114.675,217.7q-3.872-1.222-5.143-1.529-6.573-1.683-9.86-2.243a75.984,75.984,0,0,0-13.2-1.121,31.723,31.723,0,0,0-12.988,2.5q-6.309,2.805-6.839,7.494a3.176,3.176,0,0,0,1.378,3.262,34.8,34.8,0,0,0-14.313,4.384,26.877,26.877,0,0,0-7.316,6.168q-3.606,4.332-3.6,8.461,0,6.321,8.111,6.321,13.2,0,31.119-17.178,1.643-1.53,2.492-2.294a5.38,5.38,0,0,1,.9,3.007,8.293,8.293,0,0,1-1.007,3.722,46.752,46.752,0,0,0-4.241,6.422,5.693,5.693,0,0,0-.742,2.345,0.818,0.818,0,0,0,.583.918q0.529,0.153,1.4-1.173t1.67-2.65a71.866,71.866,0,0,1,7.9-10.246,95.57,95.57,0,0,1,10.549-9.94q7.263-6.015,10.815-6.372a5.859,5.859,0,0,1,2.386.306,0.416,0.416,0,0,0,.583-0.153,0.784,0.784,0,0,0-.636-0.408h0ZM90.289,231.97a55.268,55.268,0,0,0-4.4,4.842,6.59,6.59,0,0,0,.265-1.835,6.281,6.281,0,0,0-1.113-3.517q9.435-8.257,18.29-11.673a25.57,25.57,0,0,1,7.051-1.886q-7.9,2.091-20.092,14.069h0Zm12.087-12.591a66.675,66.675,0,0,0-18.5,10.654q-4.348-4.332-13.518-4.18-0.531,0-1.484.1a2.7,2.7,0,0,1-1.537-2.906q0.424-3.771,6.415-6.218a33.676,33.676,0,0,1,12.67-2.243,118.525,118.525,0,0,1,13.836.713q2.915,0.357,9.383,1.53,1.379,0.255,2.015.407a34.777,34.777,0,0,0-9.277,2.141h0ZM79.1,234.009a120.2,120.2,0,0,1-15.851,12.438q-7.051,4.332-12.617,4.332-6.945,0-6.945-5.607,0-6.523,11.186-13.3a37.883,37.883,0,0,1,7.793-3.466,28.371,28.371,0,0,1,7.74-1.58q8.64-.306,12.935,3.67-2.067,1.579-4.241,3.517h0ZM114.78,220.6q-3.5,1.07-9.86,6.473-3.447,2.906-8.8,8.156a53.749,53.749,0,0,0-6.839,7.748,5.635,5.635,0,0,0-1.166,2.957,1.543,1.543,0,0,0,1.8,1.682q1.59,0,4.9-2.243a55.54,55.54,0,0,0,6.229-4.893q0.477-.408.265-0.612-0.265-.255-0.8.2-4.348,3.62-5.832,4.587-3.022,2.04-4.135,2.039a0.468,0.468,0,0,1-.583-0.458q0-1.836,7.422-9.176a149.828,149.828,0,0,1,16.487-14.476,12.621,12.621,0,0,1,4.188-2.243l0.053-.1a11.148,11.148,0,0,0-3.34.357h0Zm3.075,13.992a3.635,3.635,0,0,0,1.219-2.013q0-.51-0.9-0.51a3.7,3.7,0,0,0-2.28.408,2.034,2.034,0,0,0-.371,1.376A3.912,3.912,0,0,1,114.3,236.2a58.3,58.3,0,0,1-9.224,8.258Q101.9,246.7,100.2,246.7a0.513,0.513,0,0,1-.636-0.509q0-.765,2.121-3.263a48.406,48.406,0,0,1,4.771-4.587,58.189,58.189,0,0,1,6.679-5.1,0.528,0.528,0,0,0,.372-0.357,0.489,0.489,0,0,0-.425-0.152,22.2,22.2,0,0,0-2.65-.153,16.934,16.934,0,0,0-5.036.611q-1.7.563-1.7,1.631c0,0.273.071,0.408,0.212,0.408a4.023,4.023,0,0,0,.636-0.459,3.915,3.915,0,0,1,1.22-.662,17.331,17.331,0,0,1,5.619-.867,26.5,26.5,0,0,0-9.966,6.321q-3.659,3.62-3.658,6.168,0,1.785,2.121,1.784,2.278,0,5.673-2.4a98.616,98.616,0,0,0,8.588-6.779Q116.636,235.894,117.855,234.6Zm16.38-1.81a20.327,20.327,0,0,0-4.453,3.008q1.643-1.53,1.643-2.6,0-1.121-1.7-1.121a13.564,13.564,0,0,0-5.964,1.988,28.128,28.128,0,0,0-6.388,4.638q-4.135,4.08-4.135,7.137a1.542,1.542,0,0,0,1.8,1.682q2.279,0,7.634-4.333a4.913,4.913,0,0,0-1.06,2.651q0,1.681,1.908,1.682,1.751,0,5.673-3.058,2.278-1.785,4.93-4.027a0.541,0.541,0,0,0,.265-0.663c-0.142-.237-0.354-0.221-0.636.051q-3.288,2.8-5.036,4.129-4.19,3.161-5.143,2.7a0.394,0.394,0,0,1-.265-0.407q0-.765,2.227-3.314A106.766,106.766,0,0,1,136.3,232.582a5.054,5.054,0,0,0-2.068.2h0Zm-3.552.612q0,0.969-5.3,6.219a49.965,49.965,0,0,1-6.335,5.327q-3.049,2.115-3.791,1.809a0.524,0.524,0,0,1-.318-0.509q0-1.836,4.877-6.321,7.688-7.084,10.232-7.086a0.532,0.532,0,0,1,.636.561h0Z" transform="translate(-42.781 -212.812)"/>
</svg>
