<svg xmlns="http://www.w3.org/2000/svg" width="110.812" height="42.938" viewBox="0 0 110.812 42.938">
  <defs>
    <style>
      .cls-1 {
        fill: #fff;
        fill-rule: evenodd;
      }
    </style>
  </defs>
  <path id="Breeze" class="cls-1" d="M88.964,213.925a5.87,5.87,0,0,0-1.431.2,16.424,16.424,0,0,0-5.3,2.549q-3.34-2.854-9.542-3.008a33.7,33.7,0,0,0-12.776,2.243,31.857,31.857,0,0,0-10.868,6.678,29.06,29.06,0,0,0-6.574,9.43,28.153,28.153,0,0,0-2.492,10.3,17.56,17.56,0,0,0,.212,3.874,14.429,14.429,0,0,0-3.287-.2q-3.075.255-3.181,1.529a0.612,0.612,0,0,0,.557.612,5.047,5.047,0,0,0,1.564.2,25.621,25.621,0,0,0,4.718-.612,11.207,11.207,0,0,0,4.771,6.652,14.945,14.945,0,0,0,8.853,2.217,14.537,14.537,0,0,0,3.87-.713,9.026,9.026,0,0,0,2.783-1.351q0.821-.689.451-0.994a1.5,1.5,0,0,0-.9.459,11.394,11.394,0,0,1-6.043,1.886,13.954,13.954,0,0,1-8.164-1.886,11.034,11.034,0,0,1-4.771-6.423q1.908,0.355,2.916.612a59.772,59.772,0,0,0,13.518,1.427,28.6,28.6,0,0,0,10.179-1.886q5.195-1.988,7.316-5.352a7.457,7.457,0,0,0,1.219-4.027,7,7,0,0,0-3.923-6.372,20.493,20.493,0,0,0,5.832-1.682,12.342,12.342,0,0,0,5.036-3.67,6.561,6.561,0,0,0,1.378-4.027,8.059,8.059,0,0,0-2.067-5.3,15.728,15.728,0,0,1,5.089-2.7,9.11,9.11,0,0,1,1.272-.255q0.477,0,.477-0.153,0.052-.255-0.689-0.255h0Zm-5.725,7.085a8.293,8.293,0,0,1-1.855,4.945,12.72,12.72,0,0,1-9.489,5.5,3.341,3.341,0,0,0-2.174-.764q4.93-5.76,5.566-6.423a52.7,52.7,0,0,1,6.945-6.525,5.379,5.379,0,0,1,1.007,3.262h0Zm-18.4,10.96a95.055,95.055,0,0,1-10.6,9.838,24.743,24.743,0,0,1-9.861,4.537,7.389,7.389,0,0,1-3.234,0,16.07,16.07,0,0,1-.265-4.027,22.534,22.534,0,0,1,2.6-9.329,34.371,34.371,0,0,1,7.21-9.43q9.86-9.276,22-9.124a14.336,14.336,0,0,1,8.906,2.65q-5.885,3.569-16.752,14.885h0Zm1.7,14.808a19.551,19.551,0,0,1-8.429,2.013,65.118,65.118,0,0,1-13.571-1.325q-0.954-.2-1.484-0.306,12.67-1.222,25.393-14.986c0.247-.272.512-0.594,0.8-0.969a0.846,0.846,0,0,0,.663.637,2.187,2.187,0,0,0,1.246.179q3.074,1.223,3.075,4.944a8.173,8.173,0,0,1-1.537,4.69A15.2,15.2,0,0,1,66.539,246.778Zm27.672-18.937a7,7,0,0,0-1.7.663,7.515,7.515,0,0,0-1.749,1.376,2.932,2.932,0,0,0-1.06,1.835q-1.485,1.53-4.294,4.129-3.34,3.11-5.778,5.1-0.477.357-.212,0.612,0.159,0.255.583,0.051,5.354-4.638,6.043-5.3,2.65-2.6,3.923-3.874a2.366,2.366,0,0,0,.954.662,2.346,2.346,0,0,1,1.166.765q0.052,0.51-4.665,4.486-5.2,4.332-5.3,7.34a1.558,1.558,0,0,0,1.749,1.835q1.537,0,5.089-2.447a65.637,65.637,0,0,0,5.884-4.638q0.424-.255.106-0.561-0.159-.2-0.636.051-4.506,3.773-5.672,4.537-3.288,2.243-4.612,2.242a0.439,0.439,0,0,1-.53-0.458q0-1.273,5.3-5.76,4.187-3.517,4.665-5.964,0.265-1.274-1.431-1.784-1.326-.408-1.325-0.765,0-.612,2.333-1.937,3.5-1.936,3.234-2.192a2.851,2.851,0,0,0-2.067,0h0Zm12.458,4.231a12.2,12.2,0,0,0-5.221,1.835,29.923,29.923,0,0,0-6.017,4.282q-3.817,3.518-4.135,6.626-0.211,2.5,2.386,2.753t6.468-2.345a60.825,60.825,0,0,0,6.1-4.74q0.477-.459.265-0.714t-0.742.2a44.609,44.609,0,0,1-6.733,5.148,9.741,9.741,0,0,1-4.612,1.733,0.937,0.937,0,0,1-1.166-.917q0-2.345,5.566-7.391a1.772,1.772,0,0,0,.848.152,9.821,9.821,0,0,0,2.942-.611,12.115,12.115,0,0,0,2.889-1.326q2.755-1.884,2.757-3.415,0-1.273-1.591-1.274h0Zm0.69,0.968q0,0.969-2.439,2.855-3.181,2.4-5.354,2.4a1.427,1.427,0,0,1-.424-0.051,45.471,45.471,0,0,1,4.772-3.874q2.862-1.989,3.34-1.631a0.408,0.408,0,0,1,.106.3h0Zm10.867-.968A12.194,12.194,0,0,0,113,233.907a29.931,29.931,0,0,0-6.017,4.282q-3.817,3.518-4.135,6.626-0.212,2.5,2.386,2.753t6.467-2.345a60.719,60.719,0,0,0,6.1-4.74q0.477-.459.265-0.714t-0.742.2a44.586,44.586,0,0,1-6.733,5.148,9.743,9.743,0,0,1-4.612,1.733,0.938,0.938,0,0,1-1.167-.917q0-2.345,5.567-7.391a1.77,1.77,0,0,0,.848.152,9.821,9.821,0,0,0,2.942-.611,12.124,12.124,0,0,0,2.89-1.326q2.756-1.884,2.756-3.415,0-1.273-1.59-1.274h0Zm0.689,0.968q0,0.969-2.439,2.855-3.18,2.4-5.354,2.4a1.428,1.428,0,0,1-.424-0.051,45.411,45.411,0,0,1,4.771-3.874q2.864-1.989,3.34-1.631a0.408,0.408,0,0,1,.106.3h0Zm15.214-.56a3.859,3.859,0,0,0-1.643.662,4.155,4.155,0,0,1-2.068.1,12.386,12.386,0,0,1-1.935-.56,6.528,6.528,0,0,0-1.935-.459,6.32,6.32,0,0,0-3.286.713,12.818,12.818,0,0,0-3.764,3.722q-0.318.3,0,.458,0.318,0.306.53-.153,2.438-2.7,4.771-2.7a16.3,16.3,0,0,1,1.643.127,16.378,16.378,0,0,0,1.75.128,7.373,7.373,0,0,0,2.545-.408q-6.574,3.161-9.119,4.74a89.993,89.993,0,0,0-9.277,6.831,8.736,8.736,0,0,0-1.458,1.019,1.375,1.375,0,0,0-.663.969c0.142,0.135.46,0.017,0.955-.357,0.353-.339.654-0.612,0.9-0.815a5.524,5.524,0,0,1,1.7-.255,10.592,10.592,0,0,1,3.181.535,13.486,13.486,0,0,0,2.28.586,5.2,5.2,0,0,0,2.677-.459,17.4,17.4,0,0,0,3.313-2.5q2.069-2.142,2.757-3.008c0.212-.237.247-0.408,0.106-0.51q-0.159-.253-0.477.153-2.121,2.04-2.651,2.447a6.793,6.793,0,0,1-4.135,1.58,16.66,16.66,0,0,1-2.12-.255,17.048,17.048,0,0,0-2.545-.254,5.5,5.5,0,0,0-2.492.509q5.832-3.618,9.066-5.454,0.051-.05,5.089-3.211,2.809-1.783,4.135-2.447,1.272-.459,1.8-0.663a0.73,0.73,0,0,0,.636-0.764,0.433,0.433,0,0,0-.265-0.051h0Zm8.8-.408a12.2,12.2,0,0,0-5.222,1.835,29.96,29.96,0,0,0-6.017,4.282q-3.816,3.518-4.135,6.626-0.212,2.5,2.386,2.753t6.467-2.345a60.719,60.719,0,0,0,6.1-4.74q0.477-.459.265-0.714t-0.742.2a44.586,44.586,0,0,1-6.733,5.148,9.74,9.74,0,0,1-4.612,1.733,0.937,0.937,0,0,1-1.166-.917q0-2.345,5.566-7.391a1.773,1.773,0,0,0,.848.152,9.826,9.826,0,0,0,2.943-.611,12.133,12.133,0,0,0,2.889-1.326q2.755-1.884,2.756-3.415,0-1.273-1.59-1.274h0Zm0.689,0.968q0,0.969-2.438,2.855-3.182,2.4-5.355,2.4a1.428,1.428,0,0,1-.424-0.051,45.515,45.515,0,0,1,4.771-3.874q2.863-1.989,3.34-1.631a0.4,0.4,0,0,1,.106.3h0Z" transform="translate(-33.719 -213.656)"/>
</svg>
