<?xml version="1.0" encoding="utf-8"?>
<!-- Generator: Adobe Illustrator 23.0.2, SVG Export Plug-In . SVG Version: 6.00 Build 0)  -->
<svg version="1.1" id="Слой_1" xmlns="http://www.w3.org/2000/svg" xmlns:xlink="http://www.w3.org/1999/xlink" x="0px" y="0px"
	 width="100px" height="100px" viewBox="0 0 100 100" style="enable-background:new 0 0 100 100;" xml:space="preserve">
<style type="text/css">
	.st0{fill:#CFC2BF;}
</style>
<path class="st0" d="M94.1,4.5H5.9c-0.8,0-1.4,0.6-1.4,1.4v39.8c0,0.8,0.6,1.4,1.4,1.4h18.5c0.8,0,1.4-0.6,1.4-1.4v-27h16.4v3.9
	c-0.4,0.2-0.8,0.6-1.1,1l-6.3,10c-0.8,1.3-0.4,3.1,0.9,3.9c0.5,0.3,1,0.4,1.5,0.4h25.6c1.6,0,2.8-1.3,2.8-2.8c0-0.5-0.2-1.1-0.4-1.5
	l-6.3-10c-0.3-0.4-0.6-0.8-1.1-1v-3.9h16.4v27c0,0.8,0.6,1.4,1.4,1.4h18.5c0.8,0,1.4-0.6,1.4-1.4V5.9C95.5,5.1,94.9,4.5,94.1,4.5z
	 M23,44.3H7.3V32.9H23V44.3z M23,30.1H7.3V18.7H23V30.1z M25.8,15.8H7.3V7.3h18.5V15.8z M28.7,15.8V7.3h19.9v8.5H28.7z M55,18.7v3.6
	H45v-3.6H55z M62.8,35.1H37.2l6.3-10h13L62.8,35.1z M71.3,15.8H51.4V7.3h19.9V15.8z M92.7,44.3H77V32.9h15.7V44.3z M92.7,30.1H77
	V18.7h15.7V30.1z M92.7,15.8H74.2V7.3h18.5V15.8z"/>
<path class="st0" d="M45.7,52.8H30.1c-1.6,0-2.8,1.3-2.8,2.8V60H13.7v35.6h74V60H72.8v-4.3c0-1.6-1.3-2.8-2.8-2.8H54.3
	c-1.6,0-2.8,1.3-2.8,2.8V60h-2.8v-4.3C48.6,54.1,47.3,52.8,45.7,52.8z M30.1,55.7h15.7V60H30.1V55.7z M54.3,55.7h15.7V60H54.3V55.7z
	 M54.3,62.8h30.6v29.9H16.6V62.8H54.3z"/>
<path class="st0" d="M42.2,89.8h17.1V65.7H42.2V89.8z M45,68.5h11.4V87H45V68.5z"/>
<path class="st0" d="M19.4,89.8h17.1V65.7H19.4V89.8z M22.2,68.5h11.4V87H22.2V68.5z"/>
<path class="st0" d="M82,65.7H64.9v24.2H82V65.7z M79.2,87H67.8V68.5h11.4V87z"/>
<path class="st0" d="M54.3,29.4h-8.5c-0.8,0-1.4,0.6-1.4,1.4c0,0.8,0.6,1.4,1.4,1.4h8.5c0.8,0,1.4-0.6,1.4-1.4
	C55.7,30,55.1,29.4,54.3,29.4z"/>
<path class="st0" d="M13.7,25.8h2.8c0.8,0,1.4-0.6,1.4-1.4c0-0.8-0.6-1.4-1.4-1.4h-2.8c-0.8,0-1.4,0.6-1.4,1.4
	C12.3,25.2,12.9,25.8,13.7,25.8z"/>
<path class="st0" d="M13.7,40h2.8c0.8,0,1.4-0.6,1.4-1.4c0-0.8-0.6-1.4-1.4-1.4h-2.8c-0.8,0-1.4,0.6-1.4,1.4
	C12.3,39.4,12.9,40,13.7,40z"/>
<path class="st0" d="M83.4,25.8h2.8c0.8,0,1.4-0.6,1.4-1.4c0-0.8-0.6-1.4-1.4-1.4h-2.8c-0.8,0-1.4,0.6-1.4,1.4
	C82,25.2,82.7,25.8,83.4,25.8z"/>
<path class="st0" d="M83.4,40h2.8c0.8,0,1.4-0.6,1.4-1.4c0-0.8-0.6-1.4-1.4-1.4h-2.8c-0.8,0-1.4,0.6-1.4,1.4
	C82,39.4,82.7,40,83.4,40z"/>
</svg>
