<?xml version="1.0" encoding="utf-8"?>
<!-- Generator: Adobe Illustrator 23.0.2, SVG Export Plug-In . SVG Version: 6.00 Build 0)  -->
<svg version="1.1" id="Слой_1" xmlns="http://www.w3.org/2000/svg" xmlns:xlink="http://www.w3.org/1999/xlink" x="0px" y="0px"
	 width="101px" height="74px" viewBox="0 0 101 74" style="enable-background:new 0 0 101 74;" xml:space="preserve">
<style type="text/css">
	.st0{fill-rule:evenodd;clip-rule:evenodd;fill:#E2D8D6;}
</style>
<g>
	<g>
		<path class="st0" d="M6.3,3.5h12.9l0,0c0.9,0,1.6,0.7,1.6,1.6v14.6c0,0.9-0.7,1.6-1.6,1.6H6.3l0,0c-0.9,0-1.6-0.7-1.6-1.6V5.1l0,0
			C4.7,4.2,5.4,3.5,6.3,3.5L6.3,3.5z M12.8,16.4V18h4.9v-1.6H12.8z M24.1,3.5H37l0,0c0.9,0,1.6,0.7,1.6,1.6v14.6
			c0,0.9-0.7,1.6-1.6,1.6H24.1l0,0c-0.9,0-1.6-0.7-1.6-1.6V5.1l0,0C22.5,4.2,23.2,3.5,24.1,3.5L24.1,3.5z M25.7,16.4V18h4.9v-1.6
			H25.7z M50,5.1h8.1c0.9,0,1.6,0.7,1.6,1.6V10c0,0.9-0.7,1.6-1.6,1.6H50c-0.9,0-1.6-0.7-1.6-1.6V6.7l0,0C48.4,5.8,49.1,5.1,50,5.1
			L50,5.1z M44.4,13.2h19.2l0,0c0.6,0,1.1,0.3,1.4,0.8l2.9,4.9l0,0c0.5,0.8,0.2,1.8-0.6,2.2c-0.3,0.2-0.5,0.2-0.8,0.2h-25l0,0
			c-0.9,0-1.6-0.7-1.6-1.6c0-0.3,0.1-0.6,0.2-0.8L43,14C43.3,13.5,43.8,13.2,44.4,13.2z M19.4,42.3c0.8,0,1.4,0.6,1.4,1.4v24.6
			c0,0.8-0.6,1.4-1.4,1.4H6.1c-0.8,0-1.4-0.6-1.4-1.4V43.7c0-0.8,0.6-1.4,1.4-1.4H19.4z M16,45.5v4.9h1.6v-4.9H16z M37.2,42.3
			c0.8,0,1.4,0.6,1.4,1.4v24.6c0,0.8-0.6,1.4-1.4,1.4H23.9c-0.8,0-1.4-0.6-1.4-1.4V43.7c0-0.8,0.6-1.4,1.4-1.4H37.2z M25.7,45.5v4.9
			h1.6v-4.9H25.7z M41.9,42.3h24.3c0.9,0,1.6,0.7,1.6,1.6v1.3l0,0c0,0.9-0.7,1.6-1.6,1.6H41.9c-0.9,0-1.6-0.7-1.6-1.6v-1.3
			C40.3,43,41,42.3,41.9,42.3z M41.9,48.8h24.3c0.9,0,1.6,0.7,1.6,1.6v17.8c0,0.9-0.7,1.6-1.6,1.6H41.9c-0.9,0-1.6-0.7-1.6-1.6V50.4
			C40.3,49.5,41,48.8,41.9,48.8z M45.1,52v1.5h17.8V52H45.1z M70.2,50.4H96c0.4,0,0.8,0.4,0.8,0.8V69l0,0c0,0.4-0.4,0.8-0.8,0.8
			H70.2c-0.4,0-0.8-0.4-0.8-0.8V51.2C69.4,50.7,69.7,50.4,70.2,50.4z M70.2,3.5H96l0,0c0.4,0,0.8,0.4,0.8,0.8v43.7l0,0
			c0,0.4-0.4,0.8-0.8,0.8H70.2l0,0c-0.4,0-0.8-0.4-0.8-0.8V4.3l0,0C69.4,3.8,69.7,3.5,70.2,3.5L70.2,3.5z M74.2,31v14.6h1.6V31H74.2
			z M48.2,43.8v1.5h1.5v-1.5H48.2z M51.9,43.8v1.5h1.5v-1.5H51.9z M55.6,43.8v1.5h1.5v-1.5H55.6z M59.4,43.8v1.5h1.5v-1.5H59.4z"/>
	</g>
</g>
</svg>
