<?xml version="1.0" encoding="utf-8"?>
<!-- Generator: Adobe Illustrator 23.0.2, SVG Export Plug-In . SVG Version: 6.00 Build 0)  -->
<svg version="1.1" id="Слой_1" xmlns="http://www.w3.org/2000/svg" xmlns:xlink="http://www.w3.org/1999/xlink" x="0px" y="0px"
	 width="93px" height="85px" viewBox="0 0 93 85" style="enable-background:new 0 0 93 85;" xml:space="preserve">
<style type="text/css">
	.st0{fill-rule:evenodd;clip-rule:evenodd;fill:#7E7376;}
</style>
<path class="st0" d="M88.2,40.4H4.8c-0.8,0-1.4,0.6-1.4,1.4v6c0,0.8,0.6,1.4,1.4,1.4h0.1v25.4c0,0.8,0.6,1.4,1.4,1.4h19.4v3.2h-3.1
	c-0.8,0-1.4,0.6-1.4,1.4c0,0.8,0.6,1.4,1.4,1.4h8.9c0.8,0,1.4-0.6,1.4-1.4c0-0.8-0.6-1.4-1.4-1.4h-3.1v-3.2h35.9v3.2h-3.1
	c-0.8,0-1.4,0.6-1.4,1.4c0,0.8,0.6,1.4,1.4,1.4h8.9c0.8,0,1.4-0.6,1.4-1.4c0-0.8-0.6-1.4-1.4-1.4h-3.1v-3.2h19.5
	c0.8,0,1.4-0.6,1.4-1.4V49.1h0.1c0.8,0,1.4-0.6,1.4-1.4v-6C89.6,41,89,40.4,88.2,40.4L88.2,40.4z M88.2,3.1H4.8
	C4,3.1,3.4,3.8,3.4,4.5v6c0,0.8,0.6,1.4,1.4,1.4h16.5v4.8c-3.4,0.7-6,3.6-6,7.2c0,0.8,0.6,1.4,1.4,1.4h4.6v0.1
	c0,0.8,0.6,1.4,1.4,1.4c0.8,0,1.4-0.6,1.4-1.4v-0.1h4.6c0.8,0,1.4-0.6,1.4-1.4c0-3.6-2.6-6.6-6-7.2v-4.8h21v4.8
	c-3.4,0.7-6,3.6-6,7.2c0,0.8,0.6,1.4,1.4,1.4h4.6v0.1c0,0.8,0.6,1.4,1.4,1.4c0.8,0,1.4-0.6,1.4-1.4v-0.1h4.6c0.8,0,1.4-0.6,1.4-1.4
	c0-3.6-2.6-6.6-6-7.2v-4.8h21v4.8c-3.4,0.7-6,3.6-6,7.2c0,0.8,0.6,1.4,1.4,1.4h4.6v0.1c0,0.8,0.6,1.4,1.4,1.4c0.8,0,1.4-0.6,1.4-1.4
	v-0.1h4.6c0.8,0,1.4-0.6,1.4-1.4c0-3.6-2.6-6.6-6-7.2v-4.8h16.5c0.8,0,1.4-0.6,1.4-1.4v-6C89.6,3.8,89,3.1,88.2,3.1L88.2,3.1z
	 M27,22.5h-8.7c0.6-1.8,2.3-3.2,4.3-3.2C24.7,19.3,26.4,20.7,27,22.5L27,22.5z M50.8,22.5h-8.7c0.6-1.8,2.3-3.2,4.3-3.2
	C48.5,19.3,50.3,20.7,50.8,22.5L50.8,22.5z M74.7,22.5H66c0.6-1.8,2.3-3.2,4.3-3.2C72.4,19.3,74.1,20.7,74.7,22.5L74.7,22.5z
	 M86.8,9.1H6.2V5.9h80.6V9.1L86.8,9.1z M25.7,73.1H7.7v-24h9.7l1.9,8.5c0.4,2,2.2,3.4,4.3,3.4h2.2L25.7,73.1L25.7,73.1z M23.6,58.2
	c-0.7,0-1.4-0.5-1.5-1.2l-0.4-1.9h11.5c0.9,0,1.6,0.7,1.6,1.6c0,0.9-0.7,1.6-1.6,1.6L23.6,58.2L23.6,58.2z M64.5,67.2h-4.6
	c-0.8,0-1.4,0.6-1.4,1.4c0,0.8,0.6,1.4,1.4,1.4h4.6v3.2H28.5V70h4.6c0.8,0,1.4-0.6,1.4-1.4c0-0.8-0.6-1.4-1.4-1.4h-4.6V61h4.6
	c2.4,0,4.4-2,4.4-4.4c0-2.4-2-4.4-4.4-4.4H21.2c-0.1,0-0.1,0-0.2,0l-0.7-3.2h52.4L72,52.3c-0.1,0-0.1,0-0.2,0H59.9
	c-2.4,0-4.4,2-4.4,4.4c0,2.4,2,4.4,4.4,4.4h4.6V67.2L64.5,67.2z M59.9,58.2c-0.9,0-1.6-0.7-1.6-1.6c0-0.9,0.7-1.6,1.6-1.6h11.5
	L71,57c-0.2,0.7-0.8,1.2-1.5,1.2L59.9,58.2L59.9,58.2z M85.3,73.1H67.3V61h2.2c2.1,0,3.8-1.4,4.3-3.4l1.9-8.5h9.7V73.1L85.3,73.1z
	 M86.8,46.3H76.2c0-0.7-0.4-1.3-1.1-1.5c-0.8-0.2-1.5,0.3-1.7,1.1l-0.1,0.4H19.7l-0.1-0.4c-0.2-0.8-0.9-1.2-1.7-1.1
	c-0.7,0.2-1.1,0.8-1.1,1.5H6.2v-3.2h80.6V46.3z"/>
</svg>
