<svg xmlns="http://www.w3.org/2000/svg" width="140.437" height="40.625" viewBox="0 0 140.437 40.625">
  <defs>
    <style>
      .cls-1 {
        fill: #fff;
        fill-rule: evenodd;
      }
    </style>
  </defs>
  <path id="Lavanda" class="cls-1" d="M76.664,214.154a10.415,10.415,0,0,0-4.162-.79q-5.3,0-11.345,4.231-5.407,3.773-14.367,13.152Q38.627,239.26,36.4,241.3q-5.089,4.691-9.277,6.117a30.449,30.449,0,0,0-9.118-1.427q-3.022.153-3.022,1.325a0.663,0.663,0,0,0,.159.408,3.908,3.908,0,0,0,2.2.866,31.853,31.853,0,0,0,4.639.255,17.5,17.5,0,0,0,4.93-.764q1.06,0.459,1.643.662,13.359,5.25,20.993,5.251,5.619,0,8.217-4.027c0.212-.2.212-0.375,0-0.51a0.652,0.652,0,0,0-.424.153q-2.015,2.6-7.263,2.6-7.369,0-21.894-4.486,9.171-3.059,21.152-15.9,10.019-10.7,12.723-13.049,5.513-4.791,10.125-4.792,4.187,0,5.779,2.906a2.366,2.366,0,0,0,.583.815q0.688-.1.371-1.274A3.622,3.622,0,0,0,76.664,214.154Zm-8.827,18.631a20.334,20.334,0,0,0-4.453,3.008q1.642-1.53,1.643-2.6,0-1.121-1.7-1.121a13.564,13.564,0,0,0-5.964,1.988,28.144,28.144,0,0,0-6.388,4.638q-4.135,4.08-4.135,7.137a1.542,1.542,0,0,0,1.8,1.682q2.279,0,7.634-4.333a4.91,4.91,0,0,0-1.06,2.651q0,1.681,1.908,1.682,1.749,0,5.672-3.058,2.279-1.785,4.93-4.027A0.541,0.541,0,0,0,68,239.769c-0.142-.237-0.354-0.221-0.636.051q-3.288,2.8-5.036,4.129-4.188,3.161-5.142,2.7a0.394,0.394,0,0,1-.265-0.407q0-.765,2.227-3.314A106.823,106.823,0,0,1,69.9,232.582a5.051,5.051,0,0,0-2.067.2h0Zm-3.552.612q0,0.969-5.3,6.219a49.959,49.959,0,0,1-6.335,5.327q-3.049,2.115-3.79,1.809a0.524,0.524,0,0,1-.318-0.509q0-1.836,4.877-6.321,7.686-7.084,10.231-7.086a0.532,0.532,0,0,1,.636.561h0Zm20.092,1.2a3.632,3.632,0,0,0,1.219-2.013q0-.51-0.9-0.51a3.7,3.7,0,0,0-2.28.408,2.031,2.031,0,0,0-.371,1.376,3.91,3.91,0,0,1-1.219,2.345,58.258,58.258,0,0,1-9.224,8.258Q68.42,246.7,66.724,246.7a0.514,0.514,0,0,1-.636-0.509q0-.765,2.121-3.263a48.448,48.448,0,0,1,4.771-4.587,58.164,58.164,0,0,1,6.68-5.1,0.525,0.525,0,0,0,.371-0.357,0.487,0.487,0,0,0-.424-0.152,22.206,22.206,0,0,0-2.651-.153,16.939,16.939,0,0,0-5.036.611q-1.7.563-1.7,1.631c0,0.273.07,0.408,0.212,0.408a4.047,4.047,0,0,0,.636-0.459,3.905,3.905,0,0,1,1.219-.662,17.335,17.335,0,0,1,5.619-.867,26.506,26.506,0,0,0-9.966,6.321q-3.658,3.62-3.658,6.168,0,1.785,2.12,1.784,2.279,0,5.672-2.4a98.5,98.5,0,0,0,8.588-6.779Q83.158,235.894,84.377,234.6Zm16.381-1.81a20.316,20.316,0,0,0-4.453,3.008q1.643-1.53,1.643-2.6,0-1.121-1.7-1.121a13.564,13.564,0,0,0-5.964,1.988A28.144,28.144,0,0,0,83.9,238.7q-4.135,4.08-4.135,7.137a1.543,1.543,0,0,0,1.8,1.682q2.279,0,7.634-4.333a4.911,4.911,0,0,0-1.06,2.651q0,1.681,1.909,1.682,1.749,0,5.672-3.058,2.279-1.785,4.931-4.027a0.541,0.541,0,0,0,.265-0.663c-0.142-.237-0.354-0.221-0.637.051q-3.287,2.8-5.036,4.129-4.188,3.161-5.142,2.7a0.394,0.394,0,0,1-.265-0.407q0-.765,2.227-3.314a106.817,106.817,0,0,1,10.761-10.347,5.048,5.048,0,0,0-2.067.2h0Zm-3.552.612q0,0.969-5.3,6.219a49.952,49.952,0,0,1-6.335,5.327q-3.049,2.115-3.79,1.809a0.524,0.524,0,0,1-.318-0.509q0-1.836,4.877-6.321,7.686-7.084,10.232-7.086a0.532,0.532,0,0,1,.636.561h0Zm20.834,6.831q-3.659,2.854-5.779,4.536-3.021,2.091-4.453,2.09a0.459,0.459,0,0,1-.53-0.509q0-.714,1.908-2.651,2.332-2.344,4.242-3.976,4.929-4.23,4.93-6.117,0-1.426-1.7-1.427-1.8,0-6.1,2.549A70.441,70.441,0,0,0,104.309,239a40.486,40.486,0,0,1,7.422-6.626,6.925,6.925,0,0,0-3.711.815,31.206,31.206,0,0,0-4.877,4.129,39.935,39.935,0,0,0-6.839,8.513,2,2,0,0,0-.106,1.172c0.106,0.543.3,0.816,0.583,0.816a70.979,70.979,0,0,1,6.733-7.238,43.115,43.115,0,0,1,7.342-5.225q4.639-2.727,5.54-2.371a0.2,0.2,0,0,1,.159.2q0,0.563-2.12,2.4l-3.287,2.753a33.416,33.416,0,0,0-4.559,4.638,4.816,4.816,0,0,0-1.06,2.753,1.645,1.645,0,0,0,1.272,1.835q1.908,0.408,5.619-2.09,2.12-1.427,5.938-4.588,0.582-.508.318-0.764-0.213-.255-0.636.1h0Zm32.338-19.574a12.837,12.837,0,0,0-2.969,1.376,74.741,74.741,0,0,0-8.588,6.729q-3.711,3.263-6.2,5.862l-0.053-.051a2.367,2.367,0,0,0,.583-1.377q0-1.07-1.643-1.07a13.47,13.47,0,0,0-5.831,1.962,27.8,27.8,0,0,0-6.362,4.613q-4.135,4.08-4.135,7.137a1.542,1.542,0,0,0,1.8,1.682q2.28,0,7.634-4.333a4.913,4.913,0,0,0-1.06,2.651q0,1.681,1.908,1.682,1.7,0,5.673-3.058,2.6-1.989,4.93-4.027,0.53-.459.265-0.714a0.475,0.475,0,0,0-.636.1l-5.036,4.129q-4.136,3.109-5.143,2.7a0.394,0.394,0,0,1-.265-0.407q0-.765,2.174-3.263,3.18-3.669,10.5-10.6a135.719,135.719,0,0,1,11.662-9.838,11.738,11.738,0,0,1,4.188-2.192l0.053-.1a11.993,11.993,0,0,0-3.445.408h0Zm-17.972,12.692q0,1.275-5.089,6.27a49.965,49.965,0,0,1-6.335,5.327q-3.049,2.115-3.791,1.809a0.559,0.559,0,0,1-.371-0.56q0-1.733,4.931-6.27,7.686-7.084,9.966-7.086c0.459,0,.689.171,0.689,0.51h0Zm20.94-.561a20.352,20.352,0,0,0-4.453,3.008q1.643-1.53,1.643-2.6,0-1.121-1.7-1.121a13.564,13.564,0,0,0-5.964,1.988,28.128,28.128,0,0,0-6.388,4.638q-4.136,4.08-4.135,7.137a1.542,1.542,0,0,0,1.8,1.682q2.28,0,7.634-4.333a4.913,4.913,0,0,0-1.06,2.651q0,1.681,1.908,1.682,1.75,0,5.673-3.058,2.279-1.785,4.93-4.027a0.54,0.54,0,0,0,.265-0.663c-0.141-.237-0.354-0.221-0.636.051q-3.288,2.8-5.036,4.129-4.19,3.161-5.143,2.7a0.394,0.394,0,0,1-.265-0.407q0-.765,2.227-3.314a106.766,106.766,0,0,1,10.762-10.347,5.054,5.054,0,0,0-2.068.2h0Zm-3.552.612q0,0.969-5.3,6.219a49.965,49.965,0,0,1-6.335,5.327q-3.049,2.115-3.791,1.809a0.524,0.524,0,0,1-.318-0.509q0-1.836,4.878-6.321,7.686-7.084,10.231-7.086a0.532,0.532,0,0,1,.636.561h0Z" transform="translate(-14.969 -213.375)"/>
</svg>
