<?xml version="1.0" encoding="utf-8"?>
<!-- Generator: Adobe Illustrator 23.0.2, SVG Export Plug-In . SVG Version: 6.00 Build 0)  -->
<svg version="1.1" id="Слой_1" xmlns="http://www.w3.org/2000/svg" xmlns:xlink="http://www.w3.org/1999/xlink" x="0px" y="0px"
	 width="139px" height="48px" viewBox="0 0 139 48" style="enable-background:new 0 0 139 48;" xml:space="preserve">
<style type="text/css">
	.st0{fill-rule:evenodd;clip-rule:evenodd;fill:#EDEDED;}
</style>
<g>
	<path class="st0" d="M2.5,46.9l6.5,0l0.6-5.3h3l1.2,5.3l5.7,0l-3.4-27.5l-10.2,0L2.5,46.9L2.5,46.9z M2.5,46.9L2.5,46.9L2.5,46.9z
		 M9.6,36.6l2.6,0L11.1,28l-0.4,0L9.6,36.6L9.6,36.6z"/>
	<path class="st0" d="M45.4,31.8H51l0-3.9c0.1-0.3,0.5-0.3,0.9-0.4c0.5,0,0.9,0.3,0.9,0.4v3.8c0,2.7-7.4,2.5-7.4,6.5v5
		c0,1.9,0.8,3.6,2.7,3.6h1.5c1.6,0,2-0.6,3.3-0.9v0.9h5.6V29.2c0-2.3-0.6-4.1-3-4.1h-7.1C44.8,25,45.5,29.4,45.4,31.8L45.4,31.8z
		 M45.4,31.8L45.4,31.8L45.4,31.8z M51,42.8h1.8v-5.6C50.2,37.7,51,40.7,51,42.8L51,42.8z"/>
	<polygon class="st0" points="33,46.6 40,46.6 43.3,24.7 37.7,24.7 36.7,37.8 35.3,24.7 29.6,24.7 33,46.6 	"/>
	<polygon class="st0" points="22,46.9 27.6,46.9 27.6,19.4 22,19.4 22,46.9 	"/>
	<polygon class="st0" points="77.3,46.6 78.7,46.6 78.9,29.7 90.9,46.9 90.9,25 89.4,25 89.3,41.9 77.3,24.4 77.3,46.6 	"/>
	<polygon class="st0" points="95,46.6 103.6,46.6 103.6,44.8 96.5,44.8 96.5,35.4 103.6,35.4 103.6,33.6 96.5,33.6 96.5,26.8 
		103.6,26.8 103.6,25 95,25 95,46.6 	"/>
	<polygon class="st0" points="62.5,46.6 69.6,46.6 69.6,44.8 64.3,44.8 64.3,25 62.5,25 62.5,46.6 	"/>
	<polygon class="st0" points="71.6,46.6 73.1,46.6 73.1,25 71.6,25 71.6,46.6 	"/>
	<path class="st0" d="M129,25.3l-8.7-1.9l1.5-18.1V4.1l-0.9,0l-1.7,19.1l0.2-0.1l-10-1h-2.1V23l2.6-0.1l9.5,1.3v1.4
		c1-0.1,0.9-0.1,0.9-1.1l8.1,1.6v1.2l0.2,0.2l0.9-0.9l-0.2-0.2l4.4,0.5h0.7v-0.9l-0.7,0.1l-3.9-0.3c1.6-7.3,4.4-14.8,5.4-22.3
		c-0.3,0-1-0.2-1,0.1C134.3,7,130.1,20.3,129,25.3L129,25.3z"/>
	<path class="st0" d="M105.5,1.6c0.3,0.4,0,0.5,0.7,0.5h30.2c0.7,0,0.4-0.1,0.7-0.5c-0.3-0.4,0-0.5-0.7-0.5h-30.2
		C105.8,1.1,105.6,1.2,105.5,1.6L105.5,1.6z"/>
	<path class="st0" d="M109,19.3c0.7-0.1,0.9,0,0.9-0.7V3.2c0-0.7-0.3-0.6-0.9-0.7V19.3L109,19.3z"/>
	<path class="st0" d="M122,21.8c0,0.5,0.5,0.4,0.9,0.5c0-2.1,1-2.4,1.4-3.7C123.3,18.8,122,20.5,122,21.8L122,21.8z"/>
	<path class="st0" d="M118,21.1c0,0.5-0.5,0.4-0.9,0.5c0.2-1.8,0.2-2.6-0.1-3.9c0.1-0.1,0.4-0.1,0.5,0C118.2,18.2,118,19.9,118,21.1
		L118,21.1z"/>
</g>
</svg>
