<svg xmlns="http://www.w3.org/2000/svg" width="98.343" height="37.5" viewBox="0 0 98.343 37.5">
  <defs>
    <style>
      .cls-1 {
        fill: #fff;
        fill-rule: evenodd;
      }
    </style>
  </defs>
  <path id="Terra" class="cls-1" d="M96.111,219.226l-0.9.1a12.464,12.464,0,0,1-2.916-.2q-4.666-.713-10.6-2.191a10.549,10.549,0,0,1,4.029-2.345,1.767,1.767,0,0,0,.9-0.459q0.052-.153-0.159-0.2a2.929,2.929,0,0,0-.451.051,4.583,4.583,0,0,0-.61.153,14.341,14.341,0,0,0-5.036,2.549,140.191,140.191,0,0,0-22.955-3.059q-15.745-.508-24.227,5.352-6.892,4.742-6.945,11.47-0.053,3.772,2.121,5.2-3.393,4.538-3.393,8.717,0,6.422,7.475,6.728Q46.7,251.7,63.561,234.519,75.648,222.234,80.578,218q6.785,1.275,11.5,1.835a9.06,9.06,0,0,0,3.234-.051q1.007-.1.8-0.561h0Zm-25.5,5.608q-0.212.151-9.6,8.818Q42.673,250.526,32.654,250.27q-7.369-.206-6.839-6.321,0.529-6.015,11.239-13.355a46.646,46.646,0,0,1,7.846-4.333,20.724,20.724,0,0,1,8.482-2.039,5.843,5.843,0,0,1,3.6,1.147,3.129,3.129,0,0,1,1.272,2.778q-0.053.969,0.212,1.019,0.37,0,.424-0.764,0.265-4.485-5.407-4.843a26.062,26.062,0,0,0-9.383,1.376,32.505,32.505,0,0,0-8.376,3.976,31.631,31.631,0,0,0-7.051,6.321q-1.59-1.529-1.643-4.842-0.053-6.219,7-10.5,8.376-5.046,23.591-4.486a169.409,169.409,0,0,1,21.417,2.345q-3.447,2.6-8.429,7.086h0Zm5.619,7.238a12.2,12.2,0,0,0-5.222,1.835,29.931,29.931,0,0,0-6.017,4.282q-3.817,3.518-4.135,6.626-0.211,2.5,2.386,2.753t6.468-2.345a60.783,60.783,0,0,0,6.1-4.74q0.477-.459.265-0.714t-0.742.2a44.585,44.585,0,0,1-6.733,5.148,9.741,9.741,0,0,1-4.612,1.733,0.937,0.937,0,0,1-1.166-.917q0-2.345,5.566-7.391a1.772,1.772,0,0,0,.848.152,9.823,9.823,0,0,0,2.942-.611,12.118,12.118,0,0,0,2.889-1.326q2.756-1.884,2.757-3.415,0-1.273-1.59-1.274h0Zm0.689,0.968q0,0.969-2.439,2.855-3.181,2.4-5.354,2.4a1.428,1.428,0,0,1-.424-0.051,45.456,45.456,0,0,1,4.771-3.874q2.863-1.989,3.34-1.631a0.406,0.406,0,0,1,.106.3h0Zm12.4-5.2a7,7,0,0,0-1.7.663,7.514,7.514,0,0,0-1.749,1.376,2.932,2.932,0,0,0-1.06,1.835q-1.485,1.53-4.294,4.129-3.34,3.11-5.778,5.1-0.477.357-.212,0.612,0.159,0.255.583,0.051,5.354-4.638,6.043-5.3,2.65-2.6,3.923-3.874a2.365,2.365,0,0,0,.954.662,2.345,2.345,0,0,1,1.166.765q0.052,0.51-4.665,4.486-5.2,4.332-5.3,7.34a1.558,1.558,0,0,0,1.75,1.835q1.537,0,5.089-2.447a65.621,65.621,0,0,0,5.885-4.638q0.424-.255.106-0.561-0.159-.2-0.636.051-4.507,3.773-5.672,4.537Q80.47,246.7,79.146,246.7a0.439,0.439,0,0,1-.53-0.458q0-1.273,5.3-5.76,4.187-3.517,4.665-5.964,0.265-1.274-1.431-1.784-1.326-.408-1.325-0.765,0-.612,2.333-1.937,3.5-1.936,3.234-2.192a2.85,2.85,0,0,0-2.067,0h0Zm14,0a7.006,7.006,0,0,0-1.7.663,7.509,7.509,0,0,0-1.749,1.376,2.932,2.932,0,0,0-1.06,1.835q-1.485,1.53-4.294,4.129-3.34,3.11-5.778,5.1-0.477.357-.212,0.612,0.159,0.255.583,0.051,5.354-4.638,6.043-5.3,2.65-2.6,3.923-3.874a2.364,2.364,0,0,0,.955.662,2.347,2.347,0,0,1,1.166.765q0.052,0.51-4.665,4.486-5.2,4.332-5.3,7.34a1.558,1.558,0,0,0,1.749,1.835q1.537,0,5.089-2.447a65.66,65.66,0,0,0,5.885-4.638q0.423-.255.106-0.561c-0.106-.136-0.319-0.119-0.637.051q-4.506,3.773-5.672,4.537-3.288,2.243-4.612,2.242a0.439,0.439,0,0,1-.53-0.458q0-1.273,5.3-5.76,4.186-3.517,4.665-5.964,0.266-1.274-1.431-1.784-1.326-.408-1.326-0.765,0-.612,2.333-1.937,3.5-1.936,3.234-2.192a2.852,2.852,0,0,0-2.068,0h0Zm17.919,4.944a20.3,20.3,0,0,0-4.453,3.008q1.642-1.53,1.643-2.6,0-1.121-1.7-1.121a13.564,13.564,0,0,0-5.964,1.988,28.128,28.128,0,0,0-6.388,4.638q-4.135,4.08-4.136,7.137a1.543,1.543,0,0,0,1.8,1.682q2.279,0,7.634-4.333a4.9,4.9,0,0,0-1.06,2.651q0,1.681,1.908,1.682,1.749,0,5.672-3.058,2.28-1.785,4.931-4.027a0.541,0.541,0,0,0,.265-0.663c-0.142-.237-0.354-0.221-0.636.051q-3.288,2.8-5.037,4.129-4.188,3.161-5.142,2.7a0.394,0.394,0,0,1-.265-0.407q0-.765,2.227-3.314a106.738,106.738,0,0,1,10.761-10.347,5.048,5.048,0,0,0-2.067.2h0Zm-3.552.612q0,0.969-5.3,6.219a49.9,49.9,0,0,1-6.335,5.327q-3.048,2.115-3.79,1.809a0.524,0.524,0,0,1-.318-0.509q0-1.836,4.877-6.321,7.686-7.084,10.232-7.086a0.532,0.532,0,0,1,.636.561h0Z" transform="translate(-24.969 -213.594)"/>
</svg>
